<svg height="512" viewBox="0 0 58 58" width="512" xmlns="http://www.w3.org/2000/svg"><g id="Page-1" fill="none" fill-rule="evenodd"><g id="021---Web-and-Mobile-UI" fill-rule="nonzero"><path id="Shape" d="m28 46h-13v-39l37 1v6z" fill="#ecf0f1"/><path id="Shape" d="m16 7v39h-14c-1.10320187-.0032948-1.9967052-.8967981-2-2v-37z" fill="#ff5364"/><path id="Shape" d="m52 2v6h-52v-6c.0032948-1.10320187.89679813-1.9967052 2-2h48c1.1032019.0032948 1.9967052.89679813 2 2z" fill="#547580"/><circle id="Oval" cx="4" cy="4" fill="#e64c3c" r="1"/><circle id="Oval" cx="8" cy="4" fill="#f0c419" r="1"/><circle id="Oval" cx="12" cy="4" fill="#24ae5f" r="1"/><path id="Shape" d="m48 5h-7c-.5522847 0-1-.44771525-1-1s.4477153-1 1-1h7c.5522847 0 1 .44771525 1 1s-.4477153 1-1 1z" fill="#ecf0f1"/><path id="Shape" d="m58 51v4c0 1.6568542-1.3431458 3-3 3h-24c-1.6568542 0-3-1.3431458-3-3v-4c0 1.6568542 1.3431458 3 3 3h24c1.6568542 0 3-1.3431458 3-3z" fill="#464f5d"/><path id="Shape" d="m58 17v34c0 1.6568542-1.3431458 3-3 3h-24c-1.6568542 0-3-1.3431458-3-3v-34c0-1.6568542 1.3431458-3 3-3h2l2.86 3.05c.5663757.6070831 1.3597411.9512371 2.19.95h9.9c.8302589.0012371 1.6236243-.3429169 2.19-.95l2.86-3.05h2c1.6568542 0 3 1.3431458 3 3z" fill="#2fa8cc"/><path id="Shape" d="m58 17v1c-27.36 0-29.77 28.27-29.98 33.25-.0165833-.0822417-.0232974-.1661679-.02-.25v-34c0-1.6568542 1.3431458-3 3-3h2l2.86 3.05c.5663757.6070831 1.3597411.9512371 2.19.95h9.9c.8302589.0012371 1.6236243-.3429169 2.19-.95l2.86-3.05h2c1.6568542 0 3 1.3431458 3 3z" fill="#67b9cc"/><path id="Shape" d="m53 14-2.86 3.05c-.5663757.6070831-1.3597411.9512371-2.19.95h-9.9c-.8302589.0012371-1.6236243-.3429169-2.19-.95l-2.86-3.05z" fill="#464f5d"/><g fill="#fff"><path id="Shape" d="m32 24c-.4043959-.0000863-.7689341-.2437275-.923678-.6173454-.1547439-.373618-.0692299-.8036603.216678-1.0896546l1-1c.3923789-.3789722 1.0160848-.3735524 1.4018186.0121814s.3911536 1.0094397.0121814 1.4018186l-1 1c-.1874927.1875494-.4418052.2929434-.707.293z"/><path id="Shape" d="m32 29c-.4043959-.0000863-.7689341-.2437275-.923678-.6173454-.1547439-.373618-.0692299-.8036603.216678-1.0896546l6-6c.3923789-.3789722 1.0160848-.3735524 1.4018186.0121814s.3911536 1.0094397.0121814 1.4018186l-6 6c-.1874927.1875494-.4418052.2929434-.707.293z"/><circle id="Oval" cx="4" cy="13" r="1"/><path id="Shape" d="m12 14h-4c-.55228475 0-1-.4477153-1-1s.44771525-1 1-1h4c.5522847 0 1 .4477153 1 1s-.4477153 1-1 1z"/><circle id="Oval" cx="4" cy="17" r="1"/><path id="Shape" d="m12 18h-4c-.55228475 0-1-.4477153-1-1s.44771525-1 1-1h4c.5522847 0 1 .4477153 1 1s-.4477153 1-1 1z"/><circle id="Oval" cx="4" cy="21" r="1"/><path id="Shape" d="m12 22h-4c-.55228475 0-1-.4477153-1-1s.44771525-1 1-1h4c.5522847 0 1 .4477153 1 1s-.4477153 1-1 1z"/><circle id="Oval" cx="4" cy="25" r="1"/><path id="Shape" d="m12 26h-4c-.55228475 0-1-.4477153-1-1s.44771525-1 1-1h4c.5522847 0 1 .4477153 1 1s-.4477153 1-1 1z"/><circle id="Oval" cx="4" cy="29" r="1"/><path id="Shape" d="m12 30h-4c-.55228475 0-1-.4477153-1-1s.44771525-1 1-1h4c.5522847 0 1 .4477153 1 1s-.4477153 1-1 1z"/><circle id="Oval" cx="4" cy="33" r="1"/><path id="Shape" d="m12 34h-4c-.55228475 0-1-.4477153-1-1s.44771525-1 1-1h4c.5522847 0 1 .4477153 1 1s-.4477153 1-1 1z"/><circle id="Oval" cx="4" cy="37" r="1"/><path id="Shape" d="m12 38h-4c-.55228475 0-1-.4477153-1-1s.44771525-1 1-1h4c.5522847 0 1 .4477153 1 1s-.4477153 1-1 1z"/><circle id="Oval" cx="4" cy="41" r="1"/><path id="Shape" d="m12 42h-4c-.55228475 0-1-.4477153-1-1s.44771525-1 1-1h4c.5522847 0 1 .4477153 1 1s-.4477153 1-1 1z"/></g></g></g></svg>